:SAMPLES-PER-SECOND 30
:FULLY-SPECIFIED
:DEGREES
49
root  4.14953 39.4012 4.81158 -165.194 -78.9099 160.742
RightUpLeg  -6.84537 -0.34594 -16.3611
RightLeg  11.4981 2.57977 -0.743657
RightFoot  1.20042 -1.7647 16.0361
RightToes  5.82063e-011 0 -3.6325e-017
Spine  11.0303 0.121957 -8.58042
Spine1  0.127998 -1.99854 6.41778
HEad  -9.07675 -7.55594 21.5624
LeftShoulder1  2.66281 -6.60143 -19.8982
LeftArm  27.637 7.50842 -54.5967
LeftForeArm  3.40262 -11.9621 -14.0438
LeftHand  -0.368776 -0.505525 7.38547
RightShoulder  1.93673 3.57788 21.062
RightArm  3.28474 -8.07019 50.4858
RightForeArm  15.7222 6.40855 14.8414
RightHand  -0.450493 -2.25268 -16.4589
LeftUpLeg  -0.216897 7.55456 3.5653
LeftLeg  16.3315 10.1803 4.33816
LeftFoot  -7.90294 0.395445 -11.5668
LeftToes  -1.1369e-010 2.7689e-011 -1.90827e-011
50
root  4.14913 39.245 5.17212 -164.092 -75.3026 159.261
RightUpLeg  -9.58323 4.74795 -18.7159
RightLeg  14.4103 0.654697 0.0753865
RightFoot  1.17094 -1.78344 16.2409
RightToes  5.82063e-011 0 -3.6325e-017
Spine  11.2 0.923369 -9.99928
Spine1  0.0175442 -1.18171 5.33781
HEad  -8.6659 -6.66343 19.3336
LeftShoulder1  2.67783 -6.61486 -20.0197
LeftArm  26.1528 5.77307 -53.5838
LeftForeArm  6.94299 -10.0823 -14.9952
LeftHand  -0.36458 0.474259 8.6212
RightShoulder  1.98819 3.81735 20.854
RightArm  6.42274 -6.22412 52.2396
RightForeArm  19.4516 4.27528 15.8781
RightHand  -0.446281 -2.87739 -20.2394
LeftUpLeg  0.333216 8.25414 1.69297
LeftLeg  17.035 12.782 4.64934
LeftFoot  -8.84642 0.301298 -11.3835
LeftToes  -1.1369e-010 2.7689e-011 -1.90827e-011
51
root  4.10187 39.2038 5.478 -165.018 -72.554 159.344
RightUpLeg  -10.6146 6.16762 -19.8128
RightLeg  15.57 1.4261 0.255964
RightFoot  1.86805 -1.8854 16.2943
RightToes  5.82063e-011 0 -3.6325e-017
Spine  11.1238 1.34084 -10.877
Spine1  0.79811 -0.802757 4.53341
HEad  -8.32574 -5.44191 17.206
LeftShoulder1  2.72318 -6.80079 -19.9799
LeftArm  18.5658 4.08921 -52.3774
LeftForeArm  13.2609 -6.51629 -15.9949
LeftHand  -0.319146 1.14528 8.65784
RightShoulder  2.00913 4.04543 20.2667
RightArm  6.81204 -4.53079 54.3013
RightForeArm  20.9015 2.23663 16.4961
RightHand  -0.443327 -3.3616 -24.8787
LeftUpLeg  2.03915 8.71587 0.632708
LeftLeg  16.2235 15.0908 4.46168
LeftFoot  -8.93656 0.289139 -11.2067
LeftToes  -1.1369e-010 2.7689e-011 -1.90827e-011
52
root  4.00413 39.262 5.73863 -166.106 -71.617 160.098
RightUpLeg  -10.3581 6.68506 -20.1571
RightLeg  14.8926 1.62008 0.305495
RightFoot  2.9354 -2.0374 16.3276
RightToes  5.82063e-011 0 -3.6325e-017
Spine  10.6023 0.889232 -10.9929
Spine1  1.45646 -1.24065 4.13324
HEad  -7.55919 -4.14384 15.3408
LeftShoulder1  2.78328 -7.03447 -19.9632
LeftArm  9.46528 2.74877 -50.9219
LeftForeArm  18.7759 -2.54252 -16.3306
LeftHand  -0.270695 1.72633 8.44229
RightShoulder  1.9972 4.12748 19.7887
RightArm  5.01503 -3.66947 55.7302
RightForeArm  21.0126 1.38413 16.5117
RightHand  -0.493606 -3.26261 -26.5757
LeftUpLeg  3.45223 9.08679 0.374816
LeftLeg  14.5364 15.7934 3.79042
LeftFoot  -8.64215 0.311712 -11.0131
LeftToes  -1.1369e-010 2.7689e-011 -1.90827e-011
53
root  3.89652 39.3517 5.94026 -166.406 -72.4179 161.015
RightUpLeg  -9.61941 6.06955 -20.0504
RightLeg  12.9565 1.67872 0.207722
RightFoot  3.98922 -2.22403 16.6206
RightToes  5.82063e-011 0 -3.6325e-017
Spine  9.97508 -0.236652 -10.9316
Spine1  0.877641 -2.3634 4.53384
HEad  -6.08518 -2.92813 13.5041
LeftShoulder1  2.80588 -7.10401 -20.0063
LeftArm  2.83673 2.0608 -49.7487
LeftForeArm  21.0245 0.339087 -16.0403
LeftHand  -0.231284 2.62923 9.41497
RightShoulder  1.9276 3.95533 19.4349
RightArm  4.39559 -4.03872 56.3037
RightForeArm  20.5386 2.67732 16.1176
RightHand  -0.448285 -3.30591 -24.317
LeftUpLeg  3.37912 9.18543 0.590776
LeftLeg  13.4005 15.0575 3.17422
LeftFoot  -8.49738 0.31423 -10.5875
LeftToes  -1.1369e-010 2.7689e-011 -1.90827e-011
54
root  3.82069 39.4356 6.06322 -165.988 -74.0557 161.526
RightUpLeg  -8.56541 3.68089 -19.6121
RightLeg  10.5472 2.79698 -0.149503
RightFoot  4.66981 -2.40019 17.179
RightToes  5.82063e-011 0 -3.6325e-017
Spine  9.70634 -1.29932 -11.3314
Spine1  -0.573586 -3.56837 5.98453
HEad  -4.49187 -2.07474 11.7005
LeftShoulder1  2.79608 -7.0468 -20.0602
LeftArm  -1.584 1.68766 -49.2242
LeftForeArm  21.2554 1.79246 -15.4974
LeftHand  -0.199137 3.41667 11.0822
RightShoulder  1.83227 3.66453 19.1341
RightArm  7.41538 -5.47601 56.0988
RightForeArm  18.5326 6.15936 15.2916
RightHand  -0.277055 -3.87422 -20.5541
LeftUpLeg  2.37281 9.03433 0.89542
LeftLeg  13.1376 13.8275 2.91302
LeftFoot  -8.36064 0.310154 -9.9848
LeftToes  -1.1369e-010 2.7689e-011 -1.90827e-011
55
root  3.77044 39.5134 6.10611 -165.501 -75.4831 161.528
RightUpLeg  -7.2019 -0.547967 -18.9232
RightLeg  8.29894 5.80342 -0.777095
RightFoot  4.83589 -2.48472 17.5927
RightToes  5.82063e-011 0 -3.6325e-017
Spine  9.7188 -1.72011 -11.9206
Spine1  -1.54594 -4.19102 7.61822
HEad  -3.72251 -1.91458 10.203
LeftShoulder1  2.78241 -7.03451 -19.9545
LeftArm  -4.44374 0.998669 -49.3535
LeftForeArm  20.5716 1.74531 -14.9243
LeftHand  -0.192082 3.62907 11.9675
RightShoulder  1.77315 3.46057 19.0276
RightArm  12.9395 -7.4657 55.1923
RightForeArm  14.3211 10.6488 13.6492
RightHand  -0.2095 -4.08451 -17.9343
LeftUpLeg  1.81165 8.81241 1.12627
LeftLeg  12.8922 12.8328 2.79065
LeftFoot  -8.01013 0.324261 -9.488
LeftToes  -1.1369e-010 2.7689e-011 -1.90827e-011
56
root  3.71702 39.5799 6.08279 -165.977 -76.045 162.041
RightUpLeg  -5.97458 -4.25968 -18.3148
RightLeg  6.49187 9.05561 -1.19631
RightFoot  4.88639 -2.47127 17.4486
RightToes  5.82063e-011 0 -3.6325e-017
Spine  9.61749 -1.46737 -11.7693
Spine1  -1.53325 -3.9503 7.99254
HEad  -3.99987 -2.36984 9.11645
LeftShoulder1  2.75055 -7.05386 -19.5782
LeftArm  -4.91899 -0.104005 -49.8916
LeftForeArm  18.359 0.0496959 -14.6595
LeftHand  -0.214345 3.37775 11.8192
RightShoulder  1.77378 3.42151 19.192
RightArm  17.4045 -9.34097 53.9603
RightForeArm  9.67077 13.968 11.8568
RightHand  -0.302917 -3.39701 -17.1157
LeftUpLeg  2.06912 8.74103 1.40737
LeftLeg  12.3165 12.3469 2.67196
LeftFoot  -7.66097 0.343974 -9.26347
LeftToes  -1.1369e-010 2.7689e-011 -1.90827e-011
57
root  3.65662 39.6175 5.99922 -167.979 -75.7096 163.986
RightUpLeg  -5.29989 -6.26747 -17.6534
RightLeg  5.25896 11.4152 -1.32277
RightFoot  5.05317 -2.42833 16.9869
RightToes  5.82063e-011 0 -3.6325e-017
Spine  9.44522 -0.860785 -10.4669
Spine1  -1.28149 -3.02933 6.68274
HEad  -4.65454 -2.91268 8.29304
LeftShoulder1  2.68101 -6.96674 -19.0965
LeftArm  -1.90584 -1.091 -50.4558
LeftForeArm  13.72 -3.32083 -14.6513
LeftHand  -0.26615 2.75753 11.4127
RightShoulder  1.8211 3.54985 19.4126
RightArm  17.9692 -10.4528 53.0581
RightForeArm  8.28105 14.3025 11.6668
RightHand  -0.44916 -2.4486 -17.4516
LeftUpLeg  2.56769 8.89707 1.92007
LeftLeg  11.8877 12.4494 2.70192
LeftFoot  -7.52461 0.358121 -9.36752
LeftToes  -1.1369e-010 2.7689e-011 -1.90827e-011
